PathFileType	4	(X/Y/Z)	./resultDataOpenSim/trcMotMarkerGrf/sub09/qtm-05-03.trc
DataRate	CameraRate	NumFrames	NumMarkers	Units	OrigDataRate	OrigDataStartFrame	OrigNumFrames
250.000000	250.000000	14	24	m	250.000000	256	511
Frame#	Time	L.Toe.Tip			R.Toe.Tip			L.Ankle.Lat			R.Ankle.Lat			L.Ankle.Med			R.Ankle.Med			L.Heel			R.Heel			L.Knee.Lat			R.Knee.Lat			L.Knee.Med			R.Knee.Med			L.Thigh.Upper			R.Thigh.Upper			L.ASIS			R.ASIS			V.Sacral			L.Acromium			R.Acromium			C7			L.Elbow			R.Elbow			L.Wrist.Lat			R.Wrist.Lat
		X1	Y1	Z1	X2	Y2	Z2	X3	Y3	Z3	X4	Y4	Z4	X5	Y5	Z5	X6	Y6	Z6	X7	Y7	Z7	X8	Y8	Z8	X9	Y9	Z9	X10	Y10	Z10	X11	Y11	Z11	X12	Y12	Z12	X13	Y13	Z13	X14	Y14	Z14	X15	Y15	Z15	X16	Y16	Z16	X17	Y17	Z17	X18	Y18	Z18	X19	Y19	Z19	X20	Y20	Z20	X21	Y21	Z21	X22	Y22	Z22	X23	Y23	Z23	X24	Y24	Z24

256	1.02	0.12848122	-0.059411268	0.068402674	0.48067521	0.11184318	0.1763694	-0.014478877	-0.0029883647	0.01996643	0.33422872	0.12631787	0.19010331	0.0080818729	0.014354282	0.1146809	0.35992931	0.16265368	0.10005705	-0.08866544	-0.025517856	0.063014837	0.27275112	0.10329681	0.13116606	0.091879656	0.39817243	-0.039405653	0.45700595	0.55186601	0.25124746	0.088969044	0.40105544	0.08490115	0.46701633	0.54468193	0.12346564	0.16300646	0.81713457	-0.093441224	0.16342475	0.83143828	0.27897324	0.25918914	0.89524224	-0.030579803	0.24070523	0.90971272	0.20790676	0.092993394	0.96542055	0.083337707	0.30459421	1.3459292	-0.061026252	0.24744486	1.3636888	0.26123694	0.21262933	1.4095575	0.089097206	0.18715715	0.99016708	-0.14907953	0.050818634	1.0596939	0.32428393	0.42963289	0.86347941	-0.122251	0.11375015	0.80022019	0.37329928
257	1.024	0.12850106	-0.059439995	0.068377998	0.50124843	0.11216724	0.17757274	-0.014598141	-0.0024365385	0.020696951	0.35428121	0.12292848	0.19039054	0.0085983472	0.014862246	0.11506106	0.37957043	0.15968944	0.10032291	-0.088501464	-0.02467665	0.063837238	0.29408576	0.097993382	0.13076275	0.092650786	0.39847907	-0.039344143	0.46433806	0.55302428	0.25157319	0.090367891	0.4012861	0.085010304	0.47426076	0.5453684	0.12392199	0.16755484	0.81667096	-0.093176997	0.16925361	0.83097631	0.27938963	0.26424375	0.89436275	-0.030777765	0.24678919	0.90907852	0.20801493	0.098751412	0.96486989	0.083873996	0.3103811	1.3453093	-0.060949225	0.25399347	1.3629788	0.26143713	0.21888298	1.4088919	0.08942288	0.19467082	0.98871638	-0.14853537	0.056971849	1.0593853	0.32481058	0.43863343	0.86511199	-0.12090215	0.11938591	0.79973082	0.3738403
258	1.028	0.12851848	-0.059473193	0.06835391	0.52173681	0.11258084	0.17891519	-0.014657316	-0.0019411995	0.021338377	0.37428072	0.11975694	0.19075676	0.0090993751	0.015358194	0.11540159	0.39928178	0.15685214	0.10058812	-0.088337552	-0.023825413	0.064587168	0.31545685	0.092924837	0.13033592	0.093531127	0.39874326	-0.039298136	0.47144401	0.55393727	0.25189326	0.091507462	0.40144584	0.085362782	0.48136965	0.5458	0.12441726	0.17209046	0.81614564	-0.092902068	0.17511319	0.83044398	0.27981839	0.26934995	0.89344593	-0.030919727	0.252909	0.90835525	0.20812409	0.10452106	0.96426027	0.084418512	0.31618535	1.3446261	-0.060871974	0.26054377	1.362199	0.26162855	0.2251389	1.4081556	0.089736476	0.20235869	0.98721832	-0.14814144	0.063041625	1.0590047	0.3254434	0.44758665	0.86665906	-0.11954574	0.12511443	0.79916072	0.37438769
259	1.032	0.12853527	-0.059507314	0.068328153	0.54211789	0.11314307	0.18037821	-0.014650624	-0.0014775731	0.021869422	0.39406	0.11685059	0.19124551	0.0095855412	0.015829759	0.11569395	0.41903644	0.15416395	0.10086573	-0.088169085	-0.022966807	0.065245249	0.33678371	0.088099021	0.12995416	0.094649489	0.39895998	-0.039292949	0.47836651	0.55461639	0.2522273	0.092507669	0.40153432	0.085920324	0.48838225	0.54598168	0.12492719	0.17661007	0.8155676	-0.092616288	0.18100031	0.82983738	0.28026144	0.27451461	0.89249808	-0.030993137	0.25906908	0.90754739	0.20822838	0.11027977	0.96361555	0.08494352	0.32200069	1.3438785	-0.060802322	0.26710748	1.3613522	0.26181762	0.23140956	1.407352	0.090030125	0.2100106	0.98567255	-0.14766518	0.069150682	1.0585305	0.32607282	0.45648609	0.8681183	-0.11818267	0.13090837	0.79850844	0.37493043
260	1.036	0.1285521	-0.059541492	0.068299206	0.56235424	0.11388463	0.18194799	-0.014589396	-0.00098543038	0.02228606	0.41359988	0.11420132	0.19183831	0.010065664	0.016279489	0.11593945	0.43880528	0.15165273	0.10118368	-0.087984809	-0.022107353	0.065804136	0.35805721	0.083519996	0.12965182	0.096046018	0.39913178	-0.039333438	0.4851305	0.55504244	0.25262107	0.093700185	0.40154901	0.086511664	0.49533337	0.54592174	0.12543862	0.18110281	0.81494854	-0.092324931	0.18692664	0.8291551	0.28072375	0.27968702	0.89150919	-0.031029491	0.26527017	0.90666159	0.20832482	0.11600296	0.96297582	0.085421683	0.32782429	1.3430697	-0.060742827	0.2736928	1.3604384	0.26200872	0.2377083	1.4064961	0.090306174	0.21750308	0.98408138	-0.14697428	0.075389726	1.0579507	0.32660846	0.46533339	0.86949266	-0.11680708	0.13674397	0.79777067	0.37546129
261	1.04	0.12856773	-0.059576418	0.068266779	0.58242774	0.1148026	0.18360197	-0.014492412	-0.00043248831	0.022639332	0.43306944	0.11170213	0.19241089	0.010536226	0.016720775	0.11613514	0.45855103	0.14934349	0.10156485	-0.087778564	-0.021249538	0.066256999	0.37932233	0.079198817	0.12942798	0.097661736	0.39926672	-0.039404871	0.49170709	0.55517688	0.25305263	0.095342174	0.40152877	0.086914247	0.50223854	0.54563134	0.12594902	0.18555848	0.81429768	-0.092042023	0.19290851	0.82840305	0.28120782	0.28483721	0.89047495	-0.031057172	0.27150859	0.90570423	0.20840832	0.12166698	0.96238228	0.085833836	0.33365991	1.3422066	-0.060689613	0.28030093	1.3594609	0.26220294	0.24403932	1.4056031	0.090576669	0.22488602	0.9824474	-0.1461279	0.081762917	1.0572752	0.32704185	0.47413514	0.87078942	-0.11541137	0.14262357	0.79694949	0.37598201
262	1.044	0.12858045	-0.059613849	0.068231583	0.60235015	0.11588574	0.18529637	-0.014363899	0.00015755726	0.022969798	0.45265589	0.10920623	0.19280253	0.010980943	0.017159587	0.1162712	0.47822098	0.14725315	0.10201025	-0.087555948	-0.020391491	0.066591679	0.40059748	0.075150018	0.12928312	0.09941722	0.39937372	-0.039488252	0.49806573	0.55501729	0.25341861	0.097383038	0.40157929	0.087010861	0.50908843	0.54512263	0.1264577	0.18997055	0.81361654	-0.091807329	0.19894932	0.82759023	0.28170773	0.28996688	0.8893995	-0.031102268	0.27778006	0.90468162	0.20847082	0.12727043	0.96182338	0.086192905	0.33951609	1.3412961	-0.06063534	0.28692235	1.358428	0.26239836	0.25039958	1.4046765	0.090859071	0.23227466	0.98077319	-0.14525961	0.088233974	1.0565092	0.32741814	0.48289407	0.87201524	-0.1139933	0.14857013	0.7960537	0.37650059
263	1.048	0.12859068	-0.059655995	0.068194287	0.62214091	0.11711828	0.18695381	-0.014191048	0.00075011285	0.023248263	0.47241739	0.10665566	0.19295972	0.011390611	0.017589922	0.11633958	0.49774835	0.14539401	0.1025048	-0.087326992	-0.019529533	0.066798173	0.42183864	0.071383903	0.12923636	0.10127706	0.39945892	-0.03957281	0.5041849	0.55458404	0.25363144	0.099573748	0.40173886	0.08687098	0.5158599	0.54441045	0.12696136	0.194339	0.81290053	-0.091669003	0.2050406	0.82672329	0.28220981	0.29508741	0.88829206	-0.031182344	0.2840854	0.9036007	0.20850547	0.13285137	0.96121775	0.086554348	0.34540103	1.3403402	-0.060573978	0.29354139	1.3573466	0.26259275	0.25678653	1.403712	0.091163591	0.23973009	0.9790617	-0.14444826	0.094766735	1.0556455	0.32779243	0.49160824	0.87317191	-0.11255512	0.15459922	0.79509252	0.37702283
264	1.052	0.12860141	-0.059703244	0.06815422	0.64179252	0.11848042	0.1884709	-0.013964618	0.0013355407	0.023422777	0.49229828	0.10413697	0.19299304	0.011773709	0.0180036	0.11633971	0.51706848	0.14377701	0.10303574	-0.087094852	-0.018659358	0.066877049	0.44296264	0.067910986	0.12931651	0.10324847	0.39952415	-0.039656664	0.51011438	0.55391625	0.2537254	0.10182229	0.40185962	0.086652123	0.52253076	0.54351173	0.12745228	0.19867533	0.81215025	-0.091604986	0.21117805	0.82580761	0.28270073	0.30020326	0.88716203	-0.031291013	0.29042592	0.90246797	0.20850718	0.13845544	0.96049278	0.086976169	0.35131894	1.3393373	-0.060504795	0.30015436	1.3562192	0.26278655	0.26319892	1.4027094	0.091477225	0.2472477	0.9773178	-0.14369658	0.10133442	1.054686	0.32819901	0.5002748	0.87425735	-0.11110018	0.16070339	0.79407156	0.37754705
265	1.056	0.12861615	-0.059752209	0.068110094	0.66126092	0.11995829	0.18975945	-0.013685076	0.0019003716	0.023466043	0.51223025	0.10177661	0.19305745	0.012149107	0.018398988	0.11627491	0.53613543	0.14240601	0.10360233	-0.086856374	-0.017777964	0.066837636	0.46388179	0.064747459	0.12954822	0.10535122	0.39956757	-0.039740812	0.5160251	0.55308674	0.25385478	0.10423318	0.40175633	0.08645848	0.52908562	0.54244233	0.12791685	0.20300193	0.81137912	-0.091488531	0.21737369	0.82485168	0.28317589	0.30531434	0.88601606	-0.031410752	0.2967962	0.9012926	0.20847256	0.14409978	0.95964771	0.087482197	0.35727132	1.3382882	-0.060430537	0.3067765	1.3550466	0.26298294	0.26963584	1.4016726	0.091769167	0.25480468	0.97555121	-0.14297775	0.10792227	1.0536471	0.32864267	0.50889104	0.87526891	-0.10963146	0.16686833	0.79299452	0.37806968
266	1.06	0.12863653	-0.059797892	0.068061308	0.68049987	0.12153191	0.1907755	-0.013355228	0.0024158032	0.023376464	0.53214417	0.099649412	0.19323533	0.012534202	0.018786079	0.1161478	0.5549184	0.14127189	0.10420529	-0.086610502	-0.016880047	0.066699336	0.4845268	0.061913041	0.12994137	0.10759729	0.39958666	-0.039827272	0.52204094	0.55213301	0.25412878	0.10682648	0.40142215	0.086299875	0.53551656	0.54121641	0.1283375	0.20734248	0.81060423	-0.091183569	0.22365448	0.82386838	0.28364178	0.31042239	0.88485861	-0.031542077	0.30318847	0.90009031	0.20839981	0.14977859	0.95872148	0.088065894	0.3632585	1.3371981	-0.060353076	0.31342358	1.3538291	0.26318403	0.27610021	1.4006022	0.092024034	0.26239146	0.97377369	-0.14227574	0.11452886	1.0525468	0.32911425	0.51745401	0.87620494	-0.10815002	0.17309191	0.79186444	0.37859201
267	1.064	0.12866132	-0.059838244	0.068007645	0.69949799	0.123151	0.19149851	-0.012981459	0.00288559	0.023177981	0.55189007	0.09782015	0.19355996	0.01293775	0.019185494	0.11596386	0.57338151	0.14035859	0.1048347	-0.086361356	-0.015954927	0.066500384	0.50485508	0.059425994	0.1304866	0.10998543	0.39958167	-0.039921032	0.52806328	0.55098879	0.25446992	0.1094627	0.40101495	0.08616103	0.54182213	0.53984359	0.12869566	0.21171345	0.80983486	-0.090646331	0.23004466	0.8228691	0.28410969	0.31552283	0.8836933	-0.031707908	0.30959927	0.89887813	0.20828657	0.15546429	0.95774684	0.088675599	0.36927925	1.3360742	-0.060272451	0.32009596	1.3525669	0.26338786	0.28259816	1.3995003	0.092262906	0.27000963	0.97199332	-0.14159167	0.1211668	1.051395	0.32960063	0.52596002	0.87706472	-0.10665465	0.17937594	0.79068269	0.37911691
268	1.068	0.12868821	-0.059874884	0.067948646	0.7182686	0.12475136	0.19190254	-0.012573385	0.0033564668	0.022906047	0.57127669	0.096351177	0.19404259	0.01335796	0.019616637	0.1157356	0.59148128	0.13964879	0.10547709	-0.086112362	-0.014995017	0.066283196	0.5248395	0.057299531	0.13116344	0.11250872	0.39955552	-0.040027128	0.53390054	0.54955456	0.25470712	0.11200207	0.40069368	0.086064495	0.54800335	0.53832358	0.12897356	0.21612397	0.80907448	-0.089916586	0.23654926	0.82185484	0.28458445	0.32058947	0.88252168	-0.031936696	0.31602832	0.89766689	0.20813131	0.16108739	0.95673986	0.089174215	0.37533348	1.3349229	-0.060187938	0.32678824	1.351263	0.26359143	0.28912868	1.3983772	0.092515325	0.27765186	0.97021337	-0.14092942	0.12785643	1.0501948	0.33008562	0.53440627	0.8778489	-0.10514331	0.18571449	0.78945039	0.37964491
269	1.072	0.12871646	-0.059910178	0.067884062	0.73679413	0.12631546	0.19197311	-0.012136979	0.0038709449	0.022587061	0.5901996	0.09524064	0.19465254	0.013787193	0.020084573	0.115477	0.6091899	0.13911436	0.1061253	-0.085855003	-0.013999269	0.066049005	0.54443418	0.055534197	0.13195562	0.11516312	0.39951085	-0.040146155	0.53951356	0.54782419	0.25476354	0.11441189	0.4005036	0.08604213	0.55406295	0.53664918	0.12915974	0.22057979	0.80832451	-0.089066433	0.24315823	0.82081629	0.28505893	0.32558283	0.88134137	-0.032249377	0.3224757	0.89646089	0.20793692	0.16655512	0.95569974	0.089376305	0.38142553	1.3337498	-0.060099085	0.33350325	1.3499235	0.26379438	0.29568137	1.3972419	0.092782503	0.2852906	0.96843647	-0.14028367	0.13461174	1.048946	0.33056063	0.54279379	0.87855982	-0.10361437	0.19210805	0.78817204	0.38017578
